<mxfile host="app.diagrams.net" modified="2020-12-01T13:39:38.151Z" agent="5.0 (Macintosh; Intel Mac OS X 10_15_6) AppleWebKit/605.1.15 (KHTML, like Gecko) Version/14.0.1 Safari/605.1.15" etag="Q4dpRyR3J0lcvBG7z6qw" version="13.10.5" type="github">
  <diagram id="-AshcmXPpUUg5ve0kAQB" name="Page-1">
    <mxGraphModel dx="1180" dy="752" grid="1" gridSize="10" guides="1" tooltips="1" connect="1" arrows="1" fold="1" page="1" pageScale="1" pageWidth="827" pageHeight="1169" math="0" shadow="0">
      <root>
        <mxCell id="0" />
        <mxCell id="1" parent="0" />
        <mxCell id="bDflyF6BFHa7Apj0PVKJ-11" style="edgeStyle=orthogonalEdgeStyle;rounded=1;orthogonalLoop=1;jettySize=auto;html=1;exitX=1;exitY=0.25;exitDx=0;exitDy=0;entryX=0;entryY=0.25;entryDx=0;entryDy=0;endArrow=none;endFill=0;" edge="1" parent="1" source="bDflyF6BFHa7Apj0PVKJ-1" target="bDflyF6BFHa7Apj0PVKJ-6">
          <mxGeometry relative="1" as="geometry" />
        </mxCell>
        <mxCell id="bDflyF6BFHa7Apj0PVKJ-12" value="coverage premium" style="edgeLabel;html=1;align=center;verticalAlign=middle;resizable=0;points=[];" vertex="1" connectable="0" parent="bDflyF6BFHa7Apj0PVKJ-11">
          <mxGeometry x="0.165" y="-1" relative="1" as="geometry">
            <mxPoint as="offset" />
          </mxGeometry>
        </mxCell>
        <mxCell id="bDflyF6BFHa7Apj0PVKJ-5" value="Agreement" style="swimlane;fillColor=#FFB570;" vertex="1" parent="1">
          <mxGeometry x="80" y="360" width="200" height="200" as="geometry" />
        </mxCell>
        <mxCell id="bDflyF6BFHa7Apj0PVKJ-1" value="Insurance Policy" style="swimlane;fontStyle=0;childLayout=stackLayout;horizontal=1;startSize=26;horizontalStack=0;resizeParent=1;resizeParentMax=0;resizeLast=0;collapsible=1;marginBottom=0;fillColor=#FFB570;" vertex="1" parent="bDflyF6BFHa7Apj0PVKJ-5">
          <mxGeometry x="30" y="48" width="140" height="104" as="geometry" />
        </mxCell>
        <mxCell id="bDflyF6BFHa7Apj0PVKJ-2" value="Direct/Indirect Indicator" style="text;strokeColor=none;fillColor=none;align=left;verticalAlign=top;spacingLeft=4;spacingRight=4;overflow=hidden;rotatable=0;points=[[0,0.5],[1,0.5]];portConstraint=eastwest;" vertex="1" parent="bDflyF6BFHa7Apj0PVKJ-1">
          <mxGeometry y="26" width="140" height="26" as="geometry" />
        </mxCell>
        <mxCell id="bDflyF6BFHa7Apj0PVKJ-3" value="Item 2" style="text;strokeColor=none;fillColor=none;align=left;verticalAlign=top;spacingLeft=4;spacingRight=4;overflow=hidden;rotatable=0;points=[[0,0.5],[1,0.5]];portConstraint=eastwest;" vertex="1" parent="bDflyF6BFHa7Apj0PVKJ-1">
          <mxGeometry y="52" width="140" height="26" as="geometry" />
        </mxCell>
        <mxCell id="bDflyF6BFHa7Apj0PVKJ-4" value="Item 3" style="text;strokeColor=none;fillColor=none;align=left;verticalAlign=top;spacingLeft=4;spacingRight=4;overflow=hidden;rotatable=0;points=[[0,0.5],[1,0.5]];portConstraint=eastwest;" vertex="1" parent="bDflyF6BFHa7Apj0PVKJ-1">
          <mxGeometry y="78" width="140" height="26" as="geometry" />
        </mxCell>
        <mxCell id="bDflyF6BFHa7Apj0PVKJ-13" value="Cash flow" style="swimlane;fillColor=#F8CECC;" vertex="1" parent="1">
          <mxGeometry x="450" y="470" width="200" height="200" as="geometry" />
        </mxCell>
        <mxCell id="bDflyF6BFHa7Apj0PVKJ-6" value="Premium" style="swimlane;fontStyle=0;childLayout=stackLayout;horizontal=1;startSize=26;horizontalStack=0;resizeParent=1;resizeParentMax=0;resizeLast=0;collapsible=1;marginBottom=0;fillColor=#F8CECC;" vertex="1" parent="bDflyF6BFHa7Apj0PVKJ-13">
          <mxGeometry x="40" y="48" width="140" height="104" as="geometry" />
        </mxCell>
        <mxCell id="bDflyF6BFHa7Apj0PVKJ-7" value="Item 1" style="text;strokeColor=none;fillColor=none;align=left;verticalAlign=top;spacingLeft=4;spacingRight=4;overflow=hidden;rotatable=0;points=[[0,0.5],[1,0.5]];portConstraint=eastwest;" vertex="1" parent="bDflyF6BFHa7Apj0PVKJ-6">
          <mxGeometry y="26" width="140" height="26" as="geometry" />
        </mxCell>
        <mxCell id="bDflyF6BFHa7Apj0PVKJ-8" value="Item 2" style="text;strokeColor=none;fillColor=none;align=left;verticalAlign=top;spacingLeft=4;spacingRight=4;overflow=hidden;rotatable=0;points=[[0,0.5],[1,0.5]];portConstraint=eastwest;" vertex="1" parent="bDflyF6BFHa7Apj0PVKJ-6">
          <mxGeometry y="52" width="140" height="26" as="geometry" />
        </mxCell>
        <mxCell id="bDflyF6BFHa7Apj0PVKJ-9" value="Item 3" style="text;strokeColor=none;fillColor=none;align=left;verticalAlign=top;spacingLeft=4;spacingRight=4;overflow=hidden;rotatable=0;points=[[0,0.5],[1,0.5]];portConstraint=eastwest;" vertex="1" parent="bDflyF6BFHa7Apj0PVKJ-6">
          <mxGeometry y="78" width="140" height="26" as="geometry" />
        </mxCell>
      </root>
    </mxGraphModel>
  </diagram>
</mxfile>
